<svg xmlns="http://www.w3.org/2000/svg" xmlns:xlink="http://www.w3.org/1999/xlink" width="500" zoomAndPan="magnify" viewBox="0 0 375 374.999991" height="500" preserveAspectRatio="xMidYMid meet" version="1.0"><defs><g/></defs><g fill="rgb(100%, 79.60968%, 45.489502%)" fill-opacity="1"><g transform="translate(159.186556, 201.191545)"><g><path d="M 33.722656 -16.253906 C 33.082031 -16.683594 32.226562 -16.46875 31.867188 -15.828125 C 21.746094 0.5 18.179688 0.144531 17.824219 0.0703125 C 17.109375 -0.144531 16.328125 -1.570312 16.113281 -5.0625 C 16.042969 -6.628906 15.683594 -11.335938 12.546875 -11.765625 C 8.910156 -12.261719 4.5625 -5.917969 0.640625 2.28125 C 3.066406 -8.554688 6.558594 -23.457031 9.125 -34.007812 C 18.679688 -51.191406 23.527344 -64.09375 21.53125 -66.875 C 21.101562 -67.515625 20.390625 -67.730469 19.675781 -67.585938 C 16.613281 -67.015625 11.835938 -56.609375 8.625 -43.417969 C 8.484375 -42.917969 -4.277344 9.195312 -4.707031 15.613281 C -4.707031 16.328125 -4.277344 16.898438 -3.566406 17.039062 C -3.492188 17.039062 -3.421875 17.039062 -3.351562 17.039062 C -2.78125 17.039062 -2.210938 16.683594 -1.996094 16.183594 C 4.207031 -1.640625 10.265625 -9.054688 12.050781 -9.054688 C 12.121094 -9.054688 12.121094 -9.054688 12.121094 -9.054688 C 12.40625 -9.054688 13.191406 -8.199219 13.402344 -4.917969 C 13.476562 -3.207031 13.832031 1.855469 17.109375 2.710938 C 18.535156 3.066406 22.742188 4.136719 34.148438 -14.402344 C 34.578125 -15.042969 34.363281 -15.898438 33.722656 -16.253906 Z M 19.179688 -63.667969 C 18.609375 -60.816406 16.613281 -54.683594 11.835938 -45.058594 C 14.542969 -55.324219 17.46875 -61.242188 19.179688 -63.667969 Z M 19.179688 -63.667969 "/></g></g></g><g fill="rgb(100%, 79.60968%, 45.489502%)" fill-opacity="1"><g transform="translate(189.910415, 201.191545)"><g><path d="M 22.386719 -15.542969 C 21.957031 -16.183594 21.101562 -16.328125 20.460938 -15.898438 C 14.332031 -11.90625 8.054688 -7.484375 2.066406 -1.925781 C 2.921875 -7.273438 3.777344 -12.90625 4.5625 -18.820312 C 4.707031 -19.535156 4.136719 -20.246094 3.421875 -20.320312 C 2.636719 -20.460938 1.925781 -19.960938 1.855469 -19.179688 C 0.855469 -11.976562 -0.144531 -5.132812 -1.210938 1.355469 C -7.199219 7.414062 -12.761719 14.828125 -17.679688 24.242188 C -25.808594 39.855469 -27.304688 57.179688 -23.242188 62.242188 C -22.457031 63.167969 -21.460938 63.667969 -20.390625 63.667969 C -20.035156 63.667969 -19.75 63.667969 -19.390625 63.523438 C -14.757812 62.242188 -10.621094 51.902344 -7.914062 43.488281 C -4.5625 33.082031 -1.496094 19.320312 1.355469 2.636719 C 7.984375 -4.0625 15.042969 -9.125 21.957031 -13.617188 C 22.601562 -14.046875 22.742188 -14.902344 22.386719 -15.542969 Z M -10.550781 42.707031 C -15.683594 58.890625 -19.464844 60.671875 -20.105469 60.886719 C -20.390625 60.957031 -20.675781 61.027344 -21.101562 60.457031 C -23.671875 57.320312 -23.882812 42.136719 -15.257812 25.523438 C -11.265625 17.894531 -6.84375 11.621094 -2.066406 6.273438 C -4.707031 21.03125 -7.558594 33.367188 -10.550781 42.707031 Z M 3.707031 -29.585938 C 7.34375 -29.445312 7.273438 -33.792969 4.347656 -32.867188 C 2.78125 -32.4375 0.925781 -29.730469 3.707031 -29.585938 Z M 3.707031 -29.585938 "/></g></g></g></svg>